<svg width="30" height="30" viewBox="0 0 30 30" fill="none" xmlns="http://www.w3.org/2000/svg">
<g clip-path="url(#clip0_594_84)">
<path d="M21.043 5.36259H23.9785V0.00326191H18.6439C18.1989 -0.0152547 12.7741 -0.118947 11.3681 5.24285C11.3477 5.29901 10.8984 6.57419 10.8984 9.5529L6.02051 9.56771V15.1887L10.9046 15.1745V30.0008H18.3649V15.1875H23.3027V9.55166H18.3649V7.77839C18.3649 6.67603 18.8297 5.36259 21.043 5.36259ZM22.0682 10.7855V13.9524H17.1305V28.7657H12.139V13.9364L7.25495 13.9506V10.7984L12.152 10.7843L12.139 10.1565C12.0748 7.00131 12.5248 5.67428 12.5451 5.61071C13.7586 0.992667 18.3921 1.22474 18.5908 1.23709L22.7441 1.23832V4.12876H21.043C18.1588 4.12876 17.1311 6.01375 17.1311 7.77777V10.7855H22.0682Z" fill="white"/>
</g>
<defs>
<clipPath id="clip0_594_84">
<rect width="30" height="30" fill="white"/>
</clipPath>
</defs>
</svg>
