<svg width="30" height="30" viewBox="0 0 30 30" fill="none" xmlns="http://www.w3.org/2000/svg">
<g clip-path="url(#clip0_594_89)">
<path d="M7.82609 29.6943H0V9.47705H7.82609V29.6943ZM1.30427 28.39H6.52182V10.7813H1.30427V28.39Z" fill="white"/>
<path d="M29.9998 29.6943H22.1737V18.6074C22.1737 17.5269 21.2977 16.6509 20.2172 16.6509C19.1365 16.6509 18.2607 17.5269 18.2607 18.6074V29.6943H10.4346V9.47705H18.2607V10.7894C19.4419 9.93537 20.8627 9.4761 22.3203 9.47705C26.5513 9.47705 29.9998 12.9091 29.9998 17.1319V29.6943ZM23.478 28.39H28.6953V17.1319C28.6864 13.6187 25.8336 10.7768 22.3203 10.7813C20.7144 10.7813 19.2062 11.4579 18.0813 12.6808L16.9562 13.9117V10.7813H11.7388V28.39H16.9562V18.6074C16.9562 16.8064 18.4161 15.3466 20.2172 15.3466C22.018 15.3466 23.478 16.8064 23.478 18.6074V28.39Z" fill="white"/>
<path d="M3.91304 8.17252C1.75184 8.17252 0 6.42068 0 4.25948C0 2.09852 1.75184 0.346436 3.91304 0.346436C6.07425 0.346436 7.82609 2.09852 7.82609 4.25948C7.82155 6.41877 6.07234 8.16822 3.91304 8.17252ZM3.91304 1.65094C2.4724 1.65094 1.30427 2.81884 1.30427 4.25948C1.30427 5.70036 2.4724 6.86825 3.91304 6.86825C5.35369 6.86825 6.52182 5.70036 6.52182 4.25948C6.52182 2.81884 5.35369 1.65094 3.91304 1.65094Z" fill="white"/>
</g>
<defs>
<clipPath id="clip0_594_89">
<rect width="30" height="30" fill="white"/>
</clipPath>
</defs>
</svg>
