<svg width="127" height="58" viewBox="0 0 127 58" fill="none" xmlns="http://www.w3.org/2000/svg">
<path d="M37.2813 27.9769C37.2813 33.9384 37.2667 39.8853 37.296 45.8468C37.3107 47.7217 37.5014 49.5966 37.5161 51.4715C37.5308 53.6393 36.5624 55.4409 34.8165 56.6567C33.0412 57.9017 31.1045 57.9017 29.2558 56.437C27.7446 55.2359 26.7176 53.6539 26.7029 51.7205C26.6442 38.0251 26.6735 24.3296 26.6589 10.6342C26.6589 8.1588 27.7886 6.35715 29.9747 5.33183C32.1755 4.3065 34.435 4.78987 36.0782 6.89911C37.1199 8.23203 37.3254 9.75537 37.3107 11.3666C37.2813 16.9034 37.296 22.4548 37.296 27.9915C37.2813 27.9769 37.2813 27.9769 37.2813 27.9769Z" fill="white"/>
<path d="M94.4871 4.80431C96.6879 4.67249 97.891 6.064 98.8153 7.73381C99.6369 9.19856 99.725 10.7805 99.5489 12.4796C99.3435 14.4131 99.4609 16.3758 99.4609 18.3386C99.4609 27.0246 99.4462 35.7105 99.4755 44.4112C99.4902 46.8426 99.7396 49.2741 99.6956 51.7056C99.6516 54.2543 98.2431 56.1145 96.0423 57.1984C94.0763 58.1652 91.4353 57.3596 90.2763 55.2357C89.5867 53.9613 89.0878 52.687 89.1025 51.2222C89.1172 49.0105 89.1172 46.7987 89.0878 44.6016C89.0732 43.0929 88.9411 41.5842 88.9411 40.0901C88.9411 38.9037 89.0878 37.7026 89.0732 36.5162C89.0145 28.1085 88.9411 19.6862 88.8531 11.2785C88.8384 9.63799 89.2786 8.15859 90.3056 6.86961C91.3913 5.49275 92.6824 4.71643 94.4871 4.80431Z" fill="white"/>
<path d="M63.368 26.5559C69.0607 26.5559 74.7534 26.5413 80.4608 26.5706C81.3117 26.5706 82.1187 26.761 82.7496 27.4201C84.0994 28.8116 84.789 30.4228 84.4368 32.371C84.2314 33.4988 83.7033 34.4802 82.9256 35.3884C82.2067 36.2379 81.3264 36.4723 80.3434 36.4723C71.3495 36.4723 62.3556 36.443 53.3618 36.443C51.0289 36.443 48.6814 36.3844 46.3633 36.5309C44.6026 36.648 43.693 35.6374 42.7833 34.4363C41.8296 33.1619 41.6829 31.6972 41.9617 30.2324C42.2258 28.797 43.1354 27.6545 44.3826 26.9074C44.9254 26.5852 45.703 26.5852 46.3633 26.5852C52.0266 26.5413 57.7046 26.5559 63.368 26.5559Z" fill="white"/>
<path d="M104.655 35.7839C104.655 32.4736 104.684 29.1486 104.655 25.8383C104.625 23.1871 104.479 20.5359 104.523 17.8847C104.537 16.9326 104.787 15.9219 105.212 15.0724C106.093 13.3293 107.589 12.4212 109.555 12.1282C111.683 11.806 113.311 12.5237 114.47 14.2521C114.896 14.8673 115.233 15.6729 115.262 16.4053C115.336 19.1151 115.292 21.8249 115.248 24.52C115.218 26.7318 115.057 28.9436 115.072 31.1553C115.101 34.5389 115.218 37.9225 115.336 41.306C115.365 42.2435 115.629 43.2102 115.527 44.133C115.365 45.6271 115.218 47.1797 114.133 48.3954C113.091 49.5672 111.903 50.534 110.259 50.5193C107.736 50.5047 106.298 49.4501 105.051 46.9746C104.816 46.5059 104.743 45.9054 104.728 45.378C104.699 42.1849 104.713 38.9917 104.713 35.7986C104.684 35.7839 104.669 35.7839 104.655 35.7839Z" fill="white"/>
<path d="M21.9639 31.2871C21.9639 35.8425 21.9786 40.4125 21.9639 44.9679C21.9492 47.3554 20.3646 49.7869 17.8411 50.5193C16.0364 51.0319 13.6009 50.0359 12.5298 48.4833C11.7082 47.2968 11.3854 45.9786 11.2094 44.6017C11.136 44.089 11.3561 43.5471 11.3561 43.0198C11.3708 35.2859 11.3854 27.552 11.3708 19.8181C11.3708 19.0272 11.136 18.2362 11.1507 17.4452C11.1947 14.7061 12.7646 13.0363 15.1121 12.2454C17.3276 11.4983 20.3353 12.9777 21.3623 15.1309C21.7731 15.9805 21.9786 16.8593 21.9786 17.8261C21.9492 22.3082 21.9639 26.7903 21.9639 31.2871Z" fill="white"/>
<path d="M55.1077 7.95363C54.7996 4.55541 57.6313 1.52338 60.2282 0.527348C63.9989 -0.908107 68.0777 0.615233 69.9997 4.3064C70.4252 5.12666 70.5132 6.12269 70.6599 7.06013C70.7626 7.70462 70.7626 8.37841 70.7039 9.0229C70.6012 10.2386 69.8236 11.1907 69.2954 12.2307C68.4591 13.9005 67.1973 15.043 65.4661 15.7461C64.1016 16.3027 62.7811 16.3613 61.3432 16.0537C59.5239 15.6582 58.1448 14.6915 56.9857 13.3586C55.6505 11.8206 55.0197 9.97499 55.1077 7.95363Z" fill="white"/>
<path d="M119.415 30.1739C119.415 29.0754 119.429 27.9768 119.4 26.8929C119.385 26.4242 119.561 26.2338 120.031 26.2484C120.985 26.2777 121.938 26.1752 122.877 26.2777C124.623 26.4535 126.208 27.5813 126.751 29.5001C127.514 32.1513 126.369 34.0995 124.594 35.7986C124.168 36.2087 123.449 36.3405 122.848 36.5017C122.364 36.6335 121.835 36.6188 121.337 36.6774C120.559 36.7653 119.84 35.989 119.693 34.8025C119.517 33.2646 119.4 31.7266 119.253 30.1886C119.312 30.1739 119.356 30.1739 119.415 30.1739Z" fill="white"/>
<path d="M7.35063 26.2483C7.24793 27.2297 7.08654 28.1378 7.07187 29.046C7.02785 31.287 7.04252 33.5427 7.01318 35.7838C7.01318 36.5601 6.80777 36.8091 6.01549 36.7505C4.29888 36.6334 2.56759 36.5748 1.3645 35.0221C0.498855 33.9089 -0.102693 32.6785 0.0293538 31.2577C0.220089 29.1338 0.968356 27.2883 3.1398 26.3948C3.28652 26.3362 3.44791 26.2629 3.6093 26.2629C4.78305 26.2483 5.98615 26.2483 7.35063 26.2483Z" fill="white"/>
</svg>
